<svg width="74" height="40" viewBox="0 0 74 40" fill="none" xmlns="http://www.w3.org/2000/svg">
<path d="M23.499 20.0027C23.499 20.8866 23.8526 21.7343 24.482 22.3593C25.1113 22.9843 25.9649 23.3355 26.8549 23.3355H46.9905C47.8805 23.3355 48.7341 22.9843 49.3635 22.3593C49.9928 21.7343 50.3464 20.8866 50.3464 20.0027C50.3464 19.1188 49.9928 18.2711 49.3635 17.6461C48.7341 17.0211 47.8805 16.6699 46.9905 16.6699H26.8549C25.9649 16.6699 25.1113 17.0211 24.482 17.6461C23.8526 18.2711 23.499 19.1188 23.499 20.0027Z" fill="#02B589"/>
<path d="M26.8549 33.3343H20.8478C17.3991 33.4257 14.04 32.2365 11.4272 29.9992C8.81447 27.7619 7.13578 24.6373 6.71934 21.2363C6.54613 19.3848 6.76486 17.5178 7.36146 15.7553C7.95806 13.9927 8.91935 12.3736 10.1836 11.002C11.4478 9.63037 12.9869 8.53657 14.7021 7.79087C16.4173 7.04517 18.2707 6.66406 20.143 6.67203H26.8549C27.7449 6.67203 28.5985 6.3209 29.2279 5.69588C29.8572 5.07086 30.2108 4.22316 30.2108 3.33925C30.2108 2.45534 29.8572 1.60764 29.2279 0.982619C28.5985 0.357602 27.7449 0.00647019 26.8549 0.00647019H20.8478C15.8734 -0.0595461 11.0423 1.66104 7.24389 4.85152C3.44545 8.04201 0.935241 12.4877 0.175301 17.3703C-0.202422 20.1944 0.031888 23.0662 0.862537 25.7931C1.69319 28.5201 3.101 31.0393 4.99167 33.182C6.88235 35.3247 9.21224 37.0415 11.8253 38.2173C14.4384 39.3931 17.2742 40.0009 20.143 39.9998H26.8549C27.7449 39.9998 28.5985 39.6487 29.2279 39.0237C29.8572 38.3987 30.2108 37.5509 30.2108 36.667C30.2108 35.7831 29.8572 34.9354 29.2279 34.3104C28.5985 33.6854 27.7449 33.3343 26.8549 33.3343Z" fill="#02B589"/>
<path d="M73.8378 17.4698C73.0873 12.5256 70.5458 8.02345 66.6903 4.80808C62.8347 1.59271 57.9301 -0.114796 52.8969 0.00599704H47.8294C45.1111 0.00599704 43.6345 1.50575 43.6345 3.33878C43.6345 4.22268 43.9881 5.07039 44.6174 5.69541C45.2468 6.32042 46.1004 6.67156 46.9904 6.67156H52.9975C56.4462 6.58014 59.8053 7.76931 62.4181 10.0066C65.0308 12.2439 66.7095 15.3685 67.126 18.7695C67.2992 20.621 67.0804 22.488 66.4838 24.2506C65.8872 26.0131 64.9259 27.6322 63.6617 29.0038C62.3975 30.3754 60.8584 31.4692 59.1432 32.215C57.428 32.9607 55.5746 33.3418 53.7023 33.3338H46.9904C46.1004 33.3338 45.2468 33.6849 44.6174 34.3099C43.9881 34.935 43.6345 35.7827 43.6345 36.6666C43.6345 37.5505 43.9881 38.3982 44.6174 39.0232C45.2468 39.6482 46.1004 39.9994 46.9904 39.9994H53.7023C56.5755 40.0223 59.4204 39.4344 62.0459 38.275C64.6713 37.1156 67.0165 35.4115 68.9239 33.2774C70.8312 31.1433 72.2565 28.6285 73.1041 25.9019C73.9517 23.1754 74.2018 20.3003 73.8378 17.4698Z" fill="#02B589"/>
</svg>
